<svg width="124" height="56" viewBox="0 0 124 56" fill="none" xmlns="http://www.w3.org/2000/svg">
<path d="M14 28L23.8995 37.8995L45.1145 16.6865M4.09961 28.1006L13.9991 38.0001M35.2121 16.7871L24.6055 27.3937" stroke="white" stroke-width="4" stroke-linecap="round" stroke-linejoin="round"/>
<path d="M81.384 15.472C81.9813 15.5573 82.3867 15.7387 82.6 16.016C82.8347 16.2933 82.952 16.656 82.952 17.104C82.952 18.576 82.1627 19.2587 80.584 19.152L79.464 19.056C78.2053 18.9493 76.9467 18.864 75.688 18.8C74.4507 18.736 73.1493 18.704 71.784 18.704H70.344C70.088 21.8613 69.8213 24.7413 69.544 27.344L75.048 27.248C75.8373 27.248 76.36 27.3867 76.616 27.664C76.8933 27.9413 77.032 28.3147 77.032 28.784C77.032 29.5093 76.8187 30.0853 76.392 30.512C75.9653 30.9173 75.3573 31.12 74.568 31.12H69.096L68.904 32.496C68.456 36.016 67.496 38.5227 66.024 40.016C64.5733 41.5093 62.568 42.256 60.008 42.256C58.5573 42.256 57.224 41.9467 56.008 41.328C54.792 40.688 53.896 39.92 53.32 39.024C53.0853 38.6613 52.968 38.224 52.968 37.712C52.968 37.2 53.0853 36.752 53.32 36.368C53.576 35.984 53.8853 35.792 54.248 35.792C54.504 35.792 54.7493 35.8773 54.984 36.048C55.24 36.2187 55.56 36.5493 55.944 37.04C56.968 38.384 58.2373 39.056 59.752 39.056C60.968 39.056 61.9813 38.5653 62.792 37.584C63.624 36.5813 64.1573 35.0133 64.392 32.88L64.584 31.12H63.048C62.5573 31.12 62.1307 30.9813 61.768 30.704C61.4267 30.4267 61.256 30.032 61.256 29.52C61.256 28.8587 61.4267 28.3573 61.768 28.016C62.1093 27.6533 62.6107 27.472 63.272 27.472C63.8693 27.472 64.456 27.4613 65.032 27.44C65.288 25.0933 65.5653 22.2453 65.864 18.896C63.56 19.1093 61.9387 19.4827 61 20.016C60.0613 20.5493 59.592 21.3387 59.592 22.384C59.592 23.1093 59.8053 23.8027 60.232 24.464C60.36 24.656 60.424 24.848 60.424 25.04C60.424 25.424 60.2107 25.7653 59.784 26.064C59.3573 26.3413 58.8773 26.48 58.344 26.48C57.768 26.48 57.2773 26.3093 56.872 25.968C56.616 25.7547 56.3707 25.3173 56.136 24.656C55.9013 23.9947 55.784 23.2587 55.784 22.448C55.784 19.8027 57.1387 17.8827 59.848 16.688C62.5787 15.4933 66.5573 14.896 71.784 14.896C75.4107 14.896 78.6107 15.088 81.384 15.472ZM89.4453 34.864C89.7226 34.864 89.9359 34.992 90.0853 35.248C90.2559 35.504 90.3413 35.856 90.3413 36.304C90.3413 37.1573 90.1386 37.8187 89.7333 38.288C88.8159 39.4187 87.8133 40.3467 86.7253 41.072C85.6586 41.7973 84.4426 42.16 83.0773 42.16C81.1999 42.16 79.8026 41.3067 78.8853 39.6C77.9893 37.8933 77.5413 35.6853 77.5413 32.976C77.5413 30.3733 77.8719 27.408 78.5333 24.08C79.2159 20.752 80.2079 17.8933 81.5093 15.504C82.8319 13.1147 84.3999 11.92 86.2133 11.92C87.2373 11.92 88.0373 12.4 88.6133 13.36C89.2106 14.2987 89.5093 15.6533 89.5093 17.424C89.5093 19.9627 88.8053 22.9067 87.3973 26.256C85.9893 29.6053 84.0799 32.9227 81.6693 36.208C81.8186 37.0827 82.0639 37.712 82.4053 38.096C82.7466 38.4587 83.1946 38.64 83.7493 38.64C84.6239 38.64 85.3919 38.3947 86.0533 37.904C86.7146 37.392 87.5573 36.528 88.5813 35.312C88.8373 35.0133 89.1253 34.864 89.4453 34.864ZM85.5093 15.088C85.0186 15.088 84.4639 15.9733 83.8453 17.744C83.2266 19.5147 82.6826 21.712 82.2133 24.336C81.7439 26.96 81.4879 29.4773 81.4453 31.888C82.9599 29.392 84.1653 26.896 85.0613 24.4C85.9573 21.8827 86.4053 19.5893 86.4053 17.52C86.4053 15.8987 86.1066 15.088 85.5093 15.088ZM104.075 32.176C104.352 32.176 104.565 32.3147 104.715 32.592C104.864 32.8693 104.939 33.2213 104.939 33.648C104.939 34.672 104.629 35.28 104.011 35.472C102.731 35.92 101.323 36.176 99.7868 36.24C99.3814 38.032 98.5814 39.472 97.3868 40.56C96.1921 41.6267 94.8374 42.16 93.3228 42.16C92.0428 42.16 90.9441 41.8507 90.0268 41.232C89.1308 40.6133 88.4481 39.792 87.9788 38.768C87.5094 37.744 87.2747 36.6347 87.2747 35.44C87.2747 33.8187 87.5841 32.3787 88.2028 31.12C88.8214 29.84 89.6748 28.848 90.7628 28.144C91.8508 27.4187 93.0561 27.056 94.3788 27.056C96.0001 27.056 97.3014 27.6213 98.2828 28.752C99.2854 29.8613 99.8721 31.2373 100.043 32.88C101.045 32.816 102.24 32.6027 103.627 32.24C103.797 32.1973 103.947 32.176 104.075 32.176ZM93.5788 38.768C94.2614 38.768 94.8481 38.4907 95.3388 37.936C95.8508 37.3813 96.1921 36.5813 96.3628 35.536C95.7014 35.088 95.1894 34.5013 94.8268 33.776C94.4854 33.0507 94.3148 32.2827 94.3148 31.472C94.3148 31.1307 94.3468 30.7893 94.4108 30.448H94.2508C93.3974 30.448 92.6828 30.864 92.1068 31.696C91.5521 32.5067 91.2748 33.6587 91.2748 35.152C91.2748 36.3253 91.4988 37.2213 91.9468 37.84C92.4161 38.4587 92.9601 38.768 93.5788 38.768ZM121.673 27.056C122.846 27.056 123.433 27.4293 123.433 28.176C123.433 28.432 123.347 28.784 123.177 29.232C121.449 33.264 119.817 36.5173 118.281 38.992C117.513 40.208 116.819 41.04 116.201 41.488C115.582 41.936 114.878 42.16 114.089 42.16C113.235 42.16 112.595 41.8293 112.169 41.168C111.763 40.5067 111.507 39.4187 111.401 37.904C111.358 37.3493 111.315 36.5173 111.273 35.408C110.611 37.2427 110.003 38.6507 109.449 39.632C108.915 40.592 108.382 41.2533 107.849 41.616C107.337 41.9787 106.718 42.16 105.993 42.16C105.118 42.16 104.425 41.8187 103.913 41.136C103.422 40.4533 103.113 39.376 102.985 37.904C102.729 34.9173 102.601 32.304 102.601 30.064V28.944C102.622 28.2187 102.803 27.728 103.145 27.472C103.486 27.1947 104.041 27.056 104.809 27.056C105.363 27.056 105.769 27.184 106.025 27.44C106.302 27.6747 106.441 28.08 106.441 28.656C106.441 31.1093 106.59 34.2987 106.889 38.224C107.593 36.7307 108.243 35.3013 108.841 33.936C109.438 32.5707 110.131 30.8213 110.921 28.688C111.155 28.048 111.433 27.6213 111.753 27.408C112.094 27.1733 112.489 27.056 112.937 27.056C113.534 27.056 113.982 27.184 114.281 27.44C114.579 27.6747 114.729 28.08 114.729 28.656V33.616C114.729 35.7493 114.739 37.2853 114.761 38.224C115.742 36.5173 116.542 35.0347 117.161 33.776C117.801 32.5173 118.515 30.8213 119.305 28.688C119.539 28.048 119.849 27.6213 120.233 27.408C120.617 27.1733 121.097 27.056 121.673 27.056Z" fill="white"/>
</svg>
